<?xml version="1.0" standalone="no"?>
<!DOCTYPE svg PUBLIC "-//W3C//DTD SVG 20010904//EN"
 "http://www.w3.org/TR/2001/REC-SVG-20010904/DTD/svg10.dtd">
<svg version="1.0" xmlns="http://www.w3.org/2000/svg"
 width="700.000000pt" height="700.000000pt" viewBox="0 0 700.000000 700.000000"
 preserveAspectRatio="xMidYMid meet">
<metadata>
Created by potrace 1.11, written by Peter Selinger 2001-2013
</metadata>
<g transform="translate(0.000000,700.000000) scale(0.100000,-0.100000)"
fill="#000000" stroke="none">
<path d="M3964 4889 c-164 -19 -310 -91 -422 -208 -120 -125 -192 -302 -226
-556 -3 -22 -5 -40 -6 -41 0 -1 -63 -1 -141 0 -77 1 -145 -2 -151 -5 -9 -6
-42 -185 -64 -339 -3 -25 -8 -48 -11 -52 -2 -5 68 -8 156 -8 l160 0 -4 -22
c-2 -13 -6 -45 -10 -71 -4 -27 -8 -57 -10 -66 -2 -10 -6 -42 -10 -72 -4 -30
-11 -75 -16 -101 -4 -26 -11 -69 -15 -95 -3 -26 -17 -102 -30 -168 -92 -446
-228 -714 -520 -1027 l-53 -58 52 -47 c28 -27 83 -78 122 -114 156 -147 169
-158 185 -149 23 13 169 157 237 235 179 206 329 504 418 830 15 53 29 109 31
124 3 14 9 40 14 56 9 28 51 256 65 350 8 54 25 165 30 191 2 12 7 48 11 80 4
33 9 62 10 67 1 4 2 19 3 33 1 25 2 25 84 24 45 -1 121 -1 170 -1 86 1 88 1
98 29 34 86 128 366 125 370 -2 2 -95 3 -205 3 l-201 0 6 47 c19 154 68 253
143 292 75 38 197 28 299 -24 l47 -24 34 82 c19 44 45 105 57 134 45 99 74
171 74 181 0 20 -155 86 -255 108 -73 16 -199 21 -281 12z"/>
<path d="M1299 4719 c-6 -3 -24 -69 -40 -145 -16 -76 -40 -186 -54 -244 -19
-85 -81 -368 -100 -455 -2 -11 -31 -144 -65 -295 -34 -151 -63 -286 -66 -300
-3 -14 -16 -72 -29 -130 -13 -58 -26 -116 -29 -130 -2 -14 -21 -99 -41 -190
-20 -91 -39 -174 -41 -185 -2 -11 -13 -58 -23 -105 -11 -47 -17 -87 -14 -90 8
-8 524 -6 529 2 3 5 7 18 10 31 6 32 8 44 53 242 22 99 43 196 46 215 3 19 11
53 16 75 6 22 13 49 15 60 16 88 58 272 64 278 5 6 154 -228 245 -385 6 -10
40 -66 76 -125 37 -59 103 -169 148 -243 45 -74 87 -139 92 -145 11 -11 618
-14 625 -3 3 4 -44 82 -103 173 -59 90 -139 213 -178 272 -38 60 -109 168
-157 242 -48 73 -88 135 -88 137 0 2 -36 58 -81 124 -44 67 -79 125 -77 130 2
4 80 89 174 187 94 98 191 199 215 224 24 26 118 124 209 219 91 95 185 193
209 219 24 25 91 96 149 156 58 61 123 128 144 150 l38 41 -325 -1 -326 0 -46
-50 c-60 -66 -221 -239 -270 -291 -41 -44 -231 -248 -283 -304 -161 -174 -300
-319 -300 -311 0 3 20 96 44 206 25 110 47 211 50 225 2 14 18 86 35 160 16
74 32 146 34 160 3 14 14 65 26 113 12 49 21 89 21 91 0 5 -522 1 -531 -5z"/>
<path d="M4721 4720 c-5 -3 -26 -80 -46 -170 -20 -91 -58 -264 -85 -385 -27
-121 -51 -231 -54 -245 -2 -14 -13 -65 -25 -115 -11 -49 -22 -101 -25 -115 -2
-14 -14 -68 -26 -120 -12 -52 -23 -102 -25 -111 -2 -9 -13 -61 -25 -115 -28
-126 -49 -224 -54 -249 -2 -11 -18 -81 -35 -155 -16 -74 -33 -150 -36 -169 -3
-19 -8 -37 -10 -41 -2 -4 -7 -22 -10 -41 -3 -19 -11 -54 -16 -79 -6 -25 -13
-56 -15 -70 -3 -14 -7 -33 -10 -42 -17 -58 -57 -53 445 -52 251 0 487 4 525 8
360 36 640 205 768 461 113 227 98 478 -37 618 -47 48 -130 101 -178 112 -28
7 -27 8 36 50 175 118 271 277 284 472 16 240 -105 428 -325 504 -129 45 -206
51 -619 53 -216 1 -397 0 -402 -4z m663 -434 c69 -11 127 -53 148 -106 18 -45
10 -138 -15 -194 -39 -85 -101 -136 -197 -161 -51 -13 -270 -20 -270 -8 0 5
16 80 35 168 19 88 42 191 50 229 8 37 17 71 19 75 5 7 176 5 230 -3z m-76
-910 c87 -9 158 -50 189 -110 22 -42 18 -137 -7 -194 -39 -88 -115 -144 -241
-178 -78 -20 -405 -27 -402 -8 8 42 46 220 83 389 12 55 26 102 30 105 11 7
269 4 348 -4z"/>
</g>
</svg>
